<svg xmlns="http://www.w3.org/2000/svg">
  <defs>
    <symbol id="logo-spytifor-blue" viewBox="0 0 393 393">
      <path d="M196.5 0C304.962 0 393 88.0376 393 196.5C393 305.197 304.962 393 196.5 393C87.8029 393 0 304.962 0 196.5C0 88.0376 87.8029 0 196.5 0ZM106.584 283.599C109.871 289.468 117.384 291.111 123.018 287.59C169.502 259.418 227.489 253.079 296.041 268.808C302.615 269.982 309.188 265.991 310.597 259.418C311.066 252.844 307.075 246.271 301.206 244.862C226.081 227.724 161.285 235.002 109.636 266.695C103.532 270.217 101.654 277.729 105.41 283.599H106.584ZM81.9337 230.072C86.629 237.115 96.0197 239.462 103.063 235.237C155.885 202.369 236.41 192.979 298.858 212.229C306.371 214.577 315.292 209.882 317.64 202.134C319.987 194.387 315.292 185.701 306.84 183.353C235.471 162.224 146.729 172.789 86.1595 209.177C79.1165 213.873 76.7688 223.263 81.4641 230.306L81.9337 230.072ZM79.586 174.197C142.973 136.634 247.679 133.113 308.249 151.425C317.64 154.477 327.5 149.077 330.552 139.217C333.604 129.826 328.204 119.262 318.344 116.21C248.853 95.0807 133.348 99.3065 60.5699 142.504C51.8835 147.668 48.8315 158.937 54.2312 167.624C58.9265 176.545 70.6649 179.362 79.1165 174.197H79.586Z" 
      fill="#067DE1"/>
    </symbol>

    <symbol id="logo-spytifor-white-text" viewBox="0 0 143 40">
      <path d="M60.1108 14.5653C60.0426 13.8778 59.75 13.3438 59.233 12.9631C58.7159 12.5824 58.0142 12.392 57.1278 12.392C56.5256 12.392 56.017 12.4773 55.6023 12.6477C55.1875 12.8125 54.8693 13.0426 54.6477 13.3381C54.4318 13.6335 54.3239 13.9688 54.3239 14.3438C54.3125 14.6562 54.3778 14.929 54.5199 15.1619C54.6676 15.3949 54.8693 15.5966 55.125 15.767C55.3807 15.9318 55.6761 16.0767 56.0114 16.2017C56.3466 16.321 56.7045 16.4233 57.0852 16.5085L58.6534 16.8835C59.4148 17.054 60.1136 17.2812 60.75 17.5653C61.3864 17.8494 61.9375 18.1989 62.4034 18.6136C62.8693 19.0284 63.2301 19.517 63.4858 20.0795C63.7472 20.642 63.8807 21.2869 63.8864 22.0142C63.8807 23.0824 63.608 24.0085 63.0682 24.7926C62.5341 25.571 61.7614 26.1761 60.75 26.608C59.7443 27.0341 58.5312 27.2472 57.1108 27.2472C55.7017 27.2472 54.4744 27.0313 53.429 26.5994C52.3892 26.1676 51.5767 25.5284 50.9915 24.6818C50.4119 23.8295 50.108 22.7756 50.0795 21.5199H53.6506C53.6903 22.1051 53.858 22.5938 54.1534 22.9858C54.4545 23.3722 54.8551 23.6648 55.3551 23.8636C55.8608 24.0568 56.4318 24.1534 57.0682 24.1534C57.6932 24.1534 58.2358 24.0625 58.696 23.8807C59.1619 23.6989 59.5227 23.446 59.7784 23.1222C60.0341 22.7983 60.1619 22.4261 60.1619 22.0057C60.1619 21.6136 60.0455 21.2841 59.8125 21.017C59.5852 20.75 59.25 20.5227 58.8068 20.3352C58.3693 20.1477 57.8324 19.9773 57.196 19.8239L55.2955 19.3466C53.8239 18.9886 52.6619 18.429 51.8097 17.6676C50.9574 16.9062 50.5341 15.8807 50.5398 14.5909C50.5341 13.5341 50.8153 12.6108 51.3835 11.821C51.9574 11.0312 52.7443 10.4148 53.7443 9.97159C54.7443 9.52841 55.8807 9.30682 57.1534 9.30682C58.4489 9.30682 59.5795 9.52841 60.5455 9.97159C61.517 10.4148 62.2727 11.0312 62.8125 11.821C63.3523 12.6108 63.6307 13.5256 63.6477 14.5653H60.1108Z" 
        fill="white"/>
      <path d="M66.3004 31.9091V13.9091H69.88V16.108H70.0419C70.201 15.7557 70.4311 15.3977 70.7322 15.0341C71.0391 14.6648 71.4368 14.358 71.9254 14.1136C72.4197 13.8636 73.0334 13.7386 73.7663 13.7386C74.7209 13.7386 75.6016 13.9886 76.4084 14.4886C77.2152 14.983 77.8601 15.7301 78.343 16.7301C78.826 17.7244 79.0675 18.9716 79.0675 20.4716C79.0675 21.9318 78.8317 23.1648 78.3601 24.1705C77.8942 25.1705 77.2578 25.929 76.451 26.446C75.6499 26.9574 74.7521 27.2131 73.7578 27.2131C73.0533 27.2131 72.4538 27.0966 71.9595 26.8636C71.4709 26.6307 71.0703 26.3381 70.7578 25.9858C70.4453 25.6278 70.2067 25.267 70.0419 24.9034H69.9311V31.9091H66.3004ZM69.8544 20.4545C69.8544 21.233 69.9624 21.9119 70.1783 22.4915C70.3942 23.071 70.7067 23.5227 71.1158 23.8466C71.5249 24.1648 72.022 24.3239 72.6072 24.3239C73.1982 24.3239 73.6982 24.1619 74.1072 23.8381C74.5163 23.5085 74.826 23.054 75.0362 22.4744C75.2521 21.8892 75.3601 21.2159 75.3601 20.4545C75.3601 19.6989 75.255 19.0341 75.0447 18.4602C74.8345 17.8864 74.5249 17.4375 74.1158 17.1136C73.7067 16.7898 73.2038 16.6278 72.6072 16.6278C72.0163 16.6278 71.5163 16.7841 71.1072 17.0966C70.7038 17.4091 70.3942 17.8523 70.1783 18.4261C69.9624 19 69.8544 19.6761 69.8544 20.4545Z" 
        fill="white"/>
      <path d="M83.3075 31.9091C82.8473 31.9091 82.4155 31.8722 82.0121 31.7983C81.6143 31.7301 81.2848 31.642 81.0234 31.5341L81.8416 28.8239C82.2678 28.9545 82.6513 29.0256 82.9922 29.0369C83.3388 29.0483 83.6371 28.9688 83.8871 28.7983C84.1428 28.6278 84.3501 28.3381 84.5092 27.929L84.7223 27.375L80.0263 13.9091H83.8445L86.5547 23.5227H86.691L89.4268 13.9091H93.2706L88.1825 28.4148C87.9382 29.1193 87.6058 29.733 87.1854 30.2557C86.7706 30.7841 86.245 31.1903 85.6087 31.4744C84.9723 31.7642 84.2053 31.9091 83.3075 31.9091Z" 
        fill="white"/>
      <path d="M102.092 13.9091V16.6364H94.2081V13.9091H102.092ZM95.9979 10.7727H99.6285V22.9773C99.6285 23.3125 99.6797 23.5739 99.782 23.7614C99.8842 23.9432 100.026 24.071 100.208 24.1449C100.396 24.2187 100.612 24.2557 100.856 24.2557C101.026 24.2557 101.197 24.2415 101.367 24.2131C101.538 24.179 101.668 24.1534 101.759 24.1364L102.33 26.8381C102.148 26.8949 101.893 26.9602 101.563 27.0341C101.234 27.1136 100.833 27.1619 100.362 27.179C99.4865 27.2131 98.7195 27.0966 98.0604 26.8295C97.407 26.5625 96.8984 26.1477 96.5348 25.5852C96.1712 25.0227 95.9922 24.3125 95.9979 23.4545V10.7727Z" 
        fill="white"/>
      <path d="M104.457 27V13.9091H108.087V27H104.457ZM106.281 12.2216C105.741 12.2216 105.278 12.0426 104.891 11.6847C104.511 11.321 104.32 10.8864 104.32 10.3807C104.32 9.88068 104.511 9.4517 104.891 9.09375C105.278 8.73011 105.741 8.54829 106.281 8.54829C106.82 8.54829 107.281 8.73011 107.661 9.09375C108.048 9.4517 108.241 9.88068 108.241 10.3807C108.241 10.8864 108.048 11.321 107.661 11.6847C107.281 12.0426 106.82 12.2216 106.281 12.2216Z" 
        fill="white"/>
      <path d="M118.036 13.9091V16.6364H109.956V13.9091H118.036ZM111.805 27V12.9631C111.805 12.0142 111.99 11.2273 112.359 10.6023C112.734 9.97727 113.246 9.50852 113.893 9.19602C114.541 8.88352 115.277 8.72727 116.101 8.72727C116.658 8.72727 117.166 8.76989 117.626 8.85511C118.092 8.94034 118.439 9.01705 118.666 9.08523L118.018 11.8125C117.876 11.767 117.7 11.7244 117.49 11.6847C117.286 11.6449 117.075 11.625 116.859 11.625C116.325 11.625 115.953 11.75 115.743 12C115.533 12.2443 115.428 12.5881 115.428 13.0312V27H111.805Z" 
        fill="white"/>
      <path d="M125.7 27.2557C124.376 27.2557 123.231 26.9744 122.265 26.4119C121.305 25.8438 120.563 25.054 120.04 24.0426C119.518 23.0256 119.256 21.8466 119.256 20.5057C119.256 19.1534 119.518 17.9716 120.04 16.9602C120.563 15.9432 121.305 15.1534 122.265 14.5909C123.231 14.0227 124.376 13.7386 125.7 13.7386C127.023 13.7386 128.165 14.0227 129.126 14.5909C130.092 15.1534 130.836 15.9432 131.359 16.9602C131.881 17.9716 132.143 19.1534 132.143 20.5057C132.143 21.8466 131.881 23.0256 131.359 24.0426C130.836 25.054 130.092 25.8438 129.126 26.4119C128.165 26.9744 127.023 27.2557 125.7 27.2557ZM125.717 24.4432C126.319 24.4432 126.822 24.2727 127.225 23.9318C127.629 23.5852 127.933 23.1136 128.137 22.517C128.347 21.9205 128.452 21.2415 128.452 20.4801C128.452 19.7188 128.347 19.0398 128.137 18.4432C127.933 17.8466 127.629 17.375 127.225 17.0284C126.822 16.6818 126.319 16.5085 125.717 16.5085C125.109 16.5085 124.597 16.6818 124.183 17.0284C123.773 17.375 123.464 17.8466 123.254 18.4432C123.049 19.0398 122.947 19.7188 122.947 20.4801C122.947 21.2415 123.049 21.9205 123.254 22.517C123.464 23.1136 123.773 23.5852 124.183 23.9318C124.597 24.2727 125.109 24.4432 125.717 24.4432Z" 
        fill="white"/>
      <path d="M134.504 27V13.9091H138.023V16.1932H138.16C138.398 15.3807 138.799 14.767 139.362 14.3523C139.924 13.9318 140.572 13.7216 141.305 13.7216C141.487 13.7216 141.683 13.733 141.893 13.7557C142.103 13.7784 142.288 13.8097 142.447 13.8494V17.071C142.276 17.0199 142.04 16.9744 141.739 16.9347C141.438 16.8949 141.163 16.875 140.913 16.875C140.379 16.875 139.901 16.9915 139.481 17.2244C139.066 17.4517 138.737 17.7699 138.492 18.179C138.254 18.5881 138.134 19.0597 138.134 19.5938V27H134.504Z" 
        fill="white"/>
      <path d="M20 0C31.0394 0 40 8.96057 40 20C40 31.0633 31.0394 40 20 40C8.93668 40 0 31.0394 0 20C0 8.96057 8.93668 0 20 0ZM10.8483 28.865C11.1828 29.4624 11.9474 29.6296 12.5209 29.2712C17.2521 26.4038 23.1541 25.7587 30.1314 27.3596C30.8005 27.4791 31.4695 27.0729 31.6129 26.4038C31.6607 25.7348 31.2545 25.0657 30.6571 24.9223C23.0108 23.178 16.4158 23.9188 11.1589 27.1446C10.5376 27.503 10.3465 28.2676 10.7288 28.865H10.8483ZM8.33931 23.417C8.8172 24.1338 9.773 24.3728 10.4898 23.9427C15.8662 20.5974 24.0621 19.6416 30.4182 21.601C31.1828 21.8399 32.0908 21.362 32.3298 20.5735C32.5687 19.7849 32.0908 18.9008 31.2306 18.6619C23.9665 16.5114 14.9343 17.5866 8.76941 21.2903C8.05257 21.7682 7.81362 22.724 8.29152 23.4409L8.33931 23.417ZM8.10036 17.73C14.552 13.9068 25.2091 13.5484 31.374 15.4122C32.3297 15.7228 33.3333 15.1732 33.644 14.1697C33.9546 13.2139 33.405 12.1386 32.4014 11.828C25.3286 9.67742 13.5723 10.1075 6.16487 14.5042C5.28076 15.0299 4.97013 16.1768 5.51971 17.0609C5.99761 17.9689 7.19235 18.2557 8.05257 17.73H8.10036Z" 
        fill="white"/>
    </symbol>

    <symbol id="logo-home-active" viewBox="0 0 25 28">
      <path d="M25 27C25 27.5523 24.5523 28 24 28H16.2778C15.7255 28 15.2778 27.5523 15.2778 27V19.0526C15.2778 18.5003 14.8301 18.0526 14.2778 18.0526H10.7222C10.1699 18.0526 9.7222 18.5003 9.7222 19.0526V27C9.7222 27.5523 9.27448 28 8.7222 28H1C0.447716 28 0 27.5523 0 27V7.89769C0 7.54272 0.188173 7.21436 0.494433 7.0349L11.9962 0.295236C12.3075 0.112825 12.6929 0.112251 13.0047 0.293734L24.503 6.98543C24.8107 7.16451 25 7.49369 25 7.84972V27Z" 
      fill="white"/>
    </symbol>

    <symbol id="logo-home" viewBox="0 0 25 28">
      <path d="M25 27C25 27.5523 24.5523 28 24 28H16.2778C15.7255 28 15.2778 27.5523 15.2778 27V19.0526C15.2778 18.5003 14.8301 18.0526 14.2778 18.0526H10.7222C10.1699 18.0526 9.7222 18.5003 9.7222 19.0526V27C9.7222 27.5523 9.27448 28 8.7222 28H1C0.447716 28 0 27.5523 0 27V7.89769C0 7.54272 0.188173 7.21436 0.494433 7.0349L11.9962 0.295236C12.3075 0.112825 12.6929 0.112251 13.0047 0.293734L24.503 6.98543C24.8107 7.16451 25 7.49369 25 7.84972V27Z" 
      fill="#A7A7A7"/>
    </symbol>

    <symbol id="logo-search-active" viewBox="0 0 32 32">
      <path d="M23.7747 22.3561L29.5924 28.4934C30.1511 29.0828 30.1332 30.0268 29.5524 30.5933C28.9808 31.1511 28.078 31.1329 27.5282 30.5526L21.7061 24.4083C19.7272 25.93 17.4956 26.7673 15.0114 26.9203C13.3514 27.0226 11.7438 26.792 10.1886 26.2288C8.63335 25.6655 7.2766 24.8625 6.11833 23.8199C4.96006 22.7772 4.01249 21.5057 3.27561 20.0055C2.53874 18.5053 2.12096 16.9125 2.02229 15.2271C1.92361 13.5418 2.15262 11.9092 2.70933 10.3292C3.26604 8.74932 4.05852 7.37069 5.08678 6.19334C6.11504 5.01599 7.36839 4.05225 8.84685 3.30212C10.3253 2.55198 11.8945 2.1258 13.5543 2.02356C15.2142 1.92132 16.8218 2.15183 18.3771 2.7151C19.9324 3.27837 21.2892 4.08134 22.4474 5.12402C23.6055 6.16669 24.5531 7.43815 25.2901 8.93838C26.027 10.4386 26.4448 12.0314 26.5434 13.7168C26.606 14.7861 26.5356 15.8403 26.3321 16.8793C26.1287 17.9184 25.8096 18.8946 25.3747 19.8079C24.9399 20.7212 24.4066 21.5706 23.7747 22.3561ZM14.84 23.9912C16.1107 23.9129 17.3094 23.5854 18.436 23.0085C19.5626 22.4317 20.519 21.6933 21.305 20.7934C22.091 19.8934 22.6986 18.8412 23.1279 17.6365C23.5572 16.4319 23.7341 15.1845 23.6586 13.8944C23.5831 12.6042 23.262 11.3875 22.6953 10.2442C22.1286 9.10096 21.4026 8.13081 20.5173 7.33378C19.632 6.53674 18.5964 5.92105 17.4106 5.48669C16.2247 5.05232 14.9965 4.87428 13.7258 4.95255C12.4551 5.03081 11.2565 5.35835 10.1298 5.93514C9.00317 6.51194 8.04682 7.25035 7.26078 8.15038C6.47473 9.0504 5.86709 10.1027 5.43783 11.3072C5.00858 12.5117 4.83171 13.7591 4.90721 15.0494C4.98272 16.3396 5.3038 17.5563 5.87045 18.6995C6.4371 19.8427 7.16312 20.8128 8.04853 21.6099C8.93394 22.407 9.96951 23.0227 11.1552 23.457C12.341 23.8913 13.5692 24.0694 14.84 23.9912Z" 
      fill="white"/>
    </symbol>

    <symbol id="logo-search" viewBox="0 0 32 32">
      <path d="M23.7747 22.3561L29.5924 28.4934C30.1511 29.0828 30.1332 30.0268 29.5524 30.5933C28.9808 31.1511 28.078 31.1329 27.5282 30.5526L21.7061 24.4083C19.7272 25.93 17.4956 26.7673 15.0114 26.9203C13.3514 27.0226 11.7438 26.792 10.1886 26.2288C8.63335 25.6655 7.2766 24.8625 6.11833 23.8199C4.96006 22.7772 4.01249 21.5057 3.27561 20.0055C2.53874 18.5053 2.12096 16.9125 2.02229 15.2271C1.92361 13.5418 2.15262 11.9092 2.70933 10.3292C3.26604 8.74932 4.05852 7.37069 5.08678 6.19334C6.11504 5.01599 7.36839 4.05225 8.84685 3.30212C10.3253 2.55198 11.8945 2.1258 13.5543 2.02356C15.2142 1.92132 16.8218 2.15183 18.3771 2.7151C19.9324 3.27837 21.2892 4.08134 22.4474 5.12402C23.6055 6.16669 24.5531 7.43815 25.2901 8.93838C26.027 10.4386 26.4448 12.0314 26.5434 13.7168C26.606 14.7861 26.5356 15.8403 26.3321 16.8793C26.1287 17.9184 25.8096 18.8946 25.3747 19.8079C24.9399 20.7212 24.4066 21.5706 23.7747 22.3561ZM14.84 23.9912C16.1107 23.9129 17.3094 23.5854 18.436 23.0085C19.5626 22.4317 20.519 21.6933 21.305 20.7934C22.091 19.8934 22.6986 18.8412 23.1279 17.6365C23.5572 16.4319 23.7341 15.1845 23.6586 13.8944C23.5831 12.6042 23.262 11.3875 22.6953 10.2442C22.1286 9.10096 21.4026 8.13081 20.5173 7.33378C19.632 6.53674 18.5964 5.92105 17.4106 5.48669C16.2247 5.05232 14.9965 4.87428 13.7258 4.95255C12.4551 5.03081 11.2565 5.35835 10.1298 5.93514C9.00317 6.51194 8.04682 7.25035 7.26078 8.15038C6.47473 9.0504 5.86709 10.1027 5.43783 11.3072C5.00858 12.5117 4.83171 13.7591 4.90721 15.0494C4.98272 16.3396 5.3038 17.5563 5.87045 18.6995C6.4371 19.8427 7.16312 20.8128 8.04853 21.6099C8.93394 22.407 9.96951 23.0227 11.1552 23.457C12.341 23.8913 13.5692 24.0694 14.84 23.9912Z" 
      fill="#A7A7A7"/>
    </symbol>

    <symbol id="logo-library" viewBox="0 0 26 26">
      <rect width="3" height="26" rx="1.5" fill="#A7A7A7"/>
      <rect x="8" width="3" height="26" rx="1.5" fill="#A7A7A7"/>
      <path fill-rule="evenodd" clip-rule="evenodd" d="M17.5288 0.151696C16.8627 -0.260161 16 0.215122 16 0.993937V25.0076C16 25.5557 16.4477 26 17 26H25C25.5523 26 26 25.5557 26 25.0076V5.94045C26 5.59781 25.8219 5.2794 25.5288 5.09821L17.5288 0.151696Z" 
      fill="#A7A7A7"/>
      <path fill-rule="evenodd" clip-rule="evenodd" d="M18.5 3.67524V23.5191H23.5V6.76681L18.5 3.67524ZM17.5288 0.151696C16.8627 -0.260161 16 0.215122 16 0.993937V25.0076C16 25.5557 16.4477 26 17 26H25C25.5523 26 26 25.5557 26 25.0076V5.94045C26 5.59781 25.8219 5.2794 25.5288 5.09821L17.5288 0.151696Z" 
      fill="#A7A7A7"/>
    </symbol>

    <linearGradient id="paint0_linear_426_4347" x1="1" y1="1" x2="32" y2="30.5" gradientUnits="userSpaceOnUse">
        <stop stop-color="#3822EA"/>
        <stop offset="1" stop-color="#C7E9D7"/>
    </linearGradient>
    
    <symbol id="logo-likedsongs" viewBox="0 0 32 32" fill="none">
      <rect width="32" height="32" rx="2" fill="url(#paint0_linear_426_4347)"/>
      <path d="M16.0006 10.158C17.6448 8.56071 20.1858 8.61373 21.7699 10.3307C23.3532 12.0484 23.4078 14.784 21.9351 16.5684L15.9992 23L10.0647 16.5684C8.59191 14.784 8.64721 12.0439 10.2299 10.3307C11.8154 8.616 14.3514 8.55844 16.0006 10.158Z" 
      fill="white"/>
    </symbol>

    <symbol id="logo-playlist" viewBox="0 0 32 32" fill="none">
      <rect width="32" height="32" rx="2" fill="#A7A7A7"/>
    </symbol>

    <symbol id="logo-user" viewBox="0 0 34 34" fill="none">
      <path fill-rule="evenodd" clip-rule="evenodd" d="M20.419 19.2347C23.127 17.9527 25 15.1951 25 12C25 7.58172 21.4183 4 17 4C12.5817 4 9 7.58172 9 12C9 15.1951 10.873 17.9527 13.581 19.2347L13.186 19.7239L5.37195 24.4478C4.74583 24.9565 4 26.1983 4 27V31H30V27C30 26.1983 29.2542 24.9565 28.6281 24.4478L20.814 19.7239L20.419 19.2347Z" 
      fill="white"/>
    </symbol>

  </defs>
</svg>